<svg width="128" height="128" viewBox="0 0 128 128" fill="none" xmlns="http://www.w3.org/2000/svg">
<rect width="128" height="128" rx="5" fill="#090909"/>
<path fill-rule="evenodd" clip-rule="evenodd" d="M64 9C94.3757 9 119 33.6243 119 64C119 94.3757 94.3757 119 64 119C33.6243 119 9 94.3757 9 64C9 33.6243 33.6243 9 64 9ZM68.5833 19.0794C43.9545 19.0794 23.865 38.1205 22.7969 61.9989C22.7475 63.1024 21.8568 64 20.7522 64C19.2202 64 17.6882 64 16.1562 64C15.0517 64 14.1514 64.8975 14.2025 66.0009C15.3023 89.7515 35.8712 108.686 60.1199 108.686C84.3684 108.686 104.148 89.7501 105.206 65.9998C105.255 64.8962 106.146 63.9986 107.25 63.9988L111.843 63.9996C112.948 63.9998 113.848 63.1022 113.8 61.9986C112.761 38.1203 93.212 19.0794 68.5833 19.0794Z" fill="#F9F9F9"/>
<path fill-rule="evenodd" clip-rule="evenodd" d="M70.875 33.75C86.6666 33.75 100.011 46.2256 101.059 61.9997C101.132 63.1018 100.23 64 99.125 64L88.6875 64C87.5829 64 86.6967 63.1015 86.6006 62.0011C85.5886 50.4074 75.8564 41.3125 64 41.3125C51.5853 41.3125 41.4995 51.284 41.3151 63.6549C41.3122 63.8447 41.1586 64 40.9688 64C40.7789 64 40.6248 63.8445 40.627 63.6547C40.8155 47.1072 54.535 33.75 70.875 33.75Z" fill="#F9F9F9"/>
<path fill-rule="evenodd" clip-rule="evenodd" d="M57.1238 94.25C41.3325 94.25 27.9887 81.7744 26.9406 66.0003C26.8673 64.8982 27.7697 64 28.8743 64L39.3116 64C40.4161 64 41.3023 64.8985 41.3984 65.9989C42.4104 77.5926 52.1425 86.6875 63.9987 86.6875C76.4132 86.6875 86.4987 76.716 86.6832 64.3451C86.6861 64.1553 86.8397 64 87.0295 64C87.2194 64 87.3735 64.1555 87.3713 64.3453C87.1828 80.8928 73.4635 94.25 57.1238 94.25Z" fill="#F9F9F9"/>
</svg>
